<svg width="55" height="18" viewBox="0 0 55 18" fill="none" xmlns="http://www.w3.org/2000/svg">
<path d="M3.05813 4.42066H4.11787L2.67662 0.181671H1.44126L0 4.42066H1.05975L1.2717 3.75453H2.84618L3.05813 4.42066ZM1.56237 2.84618L2.05894 1.28986L2.5555 2.84618H1.56237Z" fill="white"/>
<path d="M6.26254 1.39281L5.63274 3.31247L5.00295 1.39281H3.99771L5.11801 4.42066H6.14748L7.26778 1.39281H6.26254Z" fill="white"/>
<path d="M9.68103 1.39281V1.67743C9.48119 1.44731 9.18446 1.30803 8.77873 1.30803C7.98543 1.30803 7.33141 2.00444 7.33141 2.90673C7.33141 3.80903 7.98543 4.50544 8.77873 4.50544C9.18446 4.50544 9.48119 4.36616 9.68103 4.13604V4.42066H10.5894V1.39281H9.68103ZM8.9604 3.64553C8.54255 3.64553 8.23977 3.36091 8.23977 2.90673C8.23977 2.45256 8.54255 2.16794 8.9604 2.16794C9.37824 2.16794 9.68103 2.45256 9.68103 2.90673C9.68103 3.36091 9.37824 3.64553 8.9604 3.64553Z" fill="white"/>
<path d="M11.2558 4.42066H12.1641V0H11.2558V4.42066Z" fill="white"/>
<path d="M13.283 1.12636C13.5798 1.12636 13.828 0.878076 13.828 0.581347C13.828 0.284618 13.5798 0.0363341 13.283 0.0363341C12.9863 0.0363341 12.738 0.284618 12.738 0.581347C12.738 0.878076 12.9863 1.12636 13.283 1.12636ZM12.8289 4.42066H13.7372V1.39281H12.8289V4.42066Z" fill="white"/>
<path d="M16.2126 1.30803C15.8068 1.30803 15.5101 1.44731 15.3103 1.67743V0.181671H14.4019V4.42066H15.3103V4.13604C15.5101 4.36616 15.8068 4.50544 16.2126 4.50544C17.0059 4.50544 17.6599 3.80903 17.6599 2.90673C17.6599 2.00444 17.0059 1.30803 16.2126 1.30803ZM16.0309 3.64553C15.6131 3.64553 15.3103 3.36091 15.3103 2.90673C15.3103 2.45256 15.6131 2.16794 16.0309 2.16794C16.4487 2.16794 16.7515 2.45256 16.7515 2.90673C16.7515 3.36091 16.4487 3.64553 16.0309 3.64553Z" fill="white"/>
<path d="M18.1749 4.42066H19.0833V0H18.1749V4.42066Z" fill="white"/>
<path d="M20.5594 3.27008H22.7092C22.7334 3.15502 22.7455 3.0339 22.7455 2.90673C22.7455 1.99232 22.0915 1.30803 21.2074 1.30803C20.2506 1.30803 19.5966 2.00444 19.5966 2.90673C19.5966 3.80903 20.2385 4.50544 21.274 4.50544C21.8493 4.50544 22.2974 4.29349 22.5941 3.8817L21.8675 3.46386C21.7463 3.59708 21.5344 3.69398 21.2861 3.69398C20.953 3.69398 20.6745 3.58497 20.5594 3.27008ZM20.5413 2.59184C20.626 2.283 20.8562 2.11344 21.2013 2.11344C21.4738 2.11344 21.7463 2.24061 21.8432 2.59184H20.5413Z" fill="white"/>
<path d="M26.228 4.50544C27.1182 4.50544 27.8328 3.80903 27.8328 2.90673C27.8328 2.00444 27.1182 1.30803 26.228 1.30803C25.3378 1.30803 24.6233 2.00444 24.6233 2.90673C24.6233 3.80903 25.3378 4.50544 26.228 4.50544ZM26.228 3.62131C25.8344 3.62131 25.5316 3.33669 25.5316 2.90673C25.5316 2.47678 25.8344 2.19216 26.228 2.19216C26.6216 2.19216 26.9244 2.47678 26.9244 2.90673C26.9244 3.33669 26.6216 3.62131 26.228 3.62131Z" fill="white"/>
<path d="M30.1209 1.30803C29.7212 1.30803 29.4184 1.45337 29.2549 1.67743V1.39281H28.3466V4.42066H29.2549V2.76745C29.2549 2.3375 29.485 2.14372 29.8181 2.14372C30.1088 2.14372 30.345 2.31933 30.345 2.69479V4.42066H31.2533V2.56156C31.2533 1.74404 30.7325 1.30803 30.1209 1.30803Z" fill="white"/>
<path d="M35.1653 2.26483V1.39281H34.5416V0.545013L33.6332 0.817519V1.39281H33.1488V2.26483H33.6332V3.33669C33.6332 4.18449 33.9784 4.54177 35.1653 4.42066V3.59708C34.7657 3.62131 34.5416 3.59708 34.5416 3.33669V2.26483H35.1653Z" fill="white"/>
<path d="M37.454 1.30803C37.0543 1.30803 36.7515 1.45337 36.588 1.67743V0.181671H35.6796V4.42066H36.588V2.76745C36.588 2.3375 36.8181 2.14372 37.1512 2.14372C37.4419 2.14372 37.678 2.31933 37.678 2.69479V4.42066H38.5864V2.56156C38.5864 1.74404 38.0656 1.30803 37.454 1.30803Z" fill="white"/>
<path d="M40.0216 3.27008H42.1714C42.1956 3.15502 42.2077 3.0339 42.2077 2.90673C42.2077 1.99232 41.5537 1.30803 40.6696 1.30803C39.7128 1.30803 39.0588 2.00444 39.0588 2.90673C39.0588 3.80903 39.7007 4.50544 40.7362 4.50544C41.3115 4.50544 41.7596 4.29349 42.0563 3.8817L41.3297 3.46386C41.2085 3.59708 40.9966 3.69398 40.7483 3.69398C40.4152 3.69398 40.1367 3.58497 40.0216 3.27008ZM40.0035 2.59184C40.0882 2.283 40.3184 2.11344 40.6635 2.11344C40.936 2.11344 41.2085 2.24061 41.3054 2.59184H40.0035Z" fill="white"/>
<path d="M5.09688 15.5228H6.86312L4.46103 8.45779H2.40209L0 15.5228H1.76625L2.11949 14.4126H4.74363L5.09688 15.5228ZM2.60395 12.8986L3.43156 10.3048L4.25917 12.8986H2.60395Z" fill="white"/>
<path d="M10.4328 10.3351C9.75661 10.3351 9.26206 10.5672 8.929 10.9507V10.4764H7.41507V17.5413H8.929V15.0484C9.26206 15.4319 9.75661 15.6641 10.4328 15.6641C11.755 15.6641 12.845 14.5034 12.845 12.9996C12.845 11.4957 11.755 10.3351 10.4328 10.3351ZM10.13 14.2309C9.43364 14.2309 8.929 13.7565 8.929 12.9996C8.929 12.2426 9.43364 11.7682 10.13 11.7682C10.8265 11.7682 11.3311 12.2426 11.3311 12.9996C11.3311 13.7565 10.8265 14.2309 10.13 14.2309Z" fill="white"/>
<path d="M16.7211 10.3351C16.0449 10.3351 15.5504 10.5672 15.2173 10.9507V10.4764H13.7034V17.5413H15.2173V15.0484C15.5504 15.4319 16.0449 15.6641 16.7211 15.6641C18.0433 15.6641 19.1333 14.5034 19.1333 12.9996C19.1333 11.4957 18.0433 10.3351 16.7211 10.3351ZM16.4184 14.2309C15.7219 14.2309 15.2173 13.7565 15.2173 12.9996C15.2173 12.2426 15.7219 11.7682 16.4184 11.7682C17.1148 11.7682 17.6194 12.2426 17.6194 12.9996C17.6194 13.7565 17.1148 14.2309 16.4184 14.2309Z" fill="white"/>
<path d="M19.9917 15.5228H21.5056V8.15501H19.9917V15.5228Z" fill="white"/>
<path d="M23.9659 13.6051H27.5488C27.5892 13.4134 27.6094 13.2115 27.6094 12.9996C27.6094 11.4755 26.5194 10.3351 25.0458 10.3351C23.4512 10.3351 22.3611 11.4957 22.3611 12.9996C22.3611 14.5034 23.431 15.6641 25.1568 15.6641C26.1157 15.6641 26.8625 15.3108 27.3571 14.6245L26.1459 13.9281C25.9441 14.1501 25.5908 14.3116 25.177 14.3116C24.6219 14.3116 24.1577 14.13 23.9659 13.6051ZM23.9356 12.4747C24.0769 11.96 24.4604 11.6774 25.0357 11.6774C25.4899 11.6774 25.9441 11.8894 26.1056 12.4747H23.9356Z" fill="white"/>
<path d="M33.5145 15.6641C35.0486 15.6641 36.1386 14.8566 36.1386 13.4941C36.1386 12.0004 34.9376 11.6269 33.8677 11.304C32.7676 10.9709 32.596 10.7489 32.596 10.4259C32.596 10.1433 32.8484 9.89097 33.353 9.89097C33.999 9.89097 34.332 10.2038 34.5742 10.7085L35.9368 9.91116C35.422 8.8716 34.5137 8.31649 33.353 8.31649C32.1318 8.31649 30.9812 9.10373 30.9812 10.4663C30.9812 11.8187 32.0107 12.3233 33.0603 12.616C34.1201 12.9087 34.5238 13.0803 34.5238 13.5143C34.5238 13.7868 34.332 14.0896 33.565 14.0896C32.7676 14.0896 32.3336 13.696 32.0813 13.1106L30.6885 13.918C31.0821 14.9576 32.0309 15.6641 33.5145 15.6641Z" fill="white"/>
<path d="M39.7046 11.9297V10.4764H38.665V9.06336L37.1511 9.51754V10.4764H36.3436V11.9297H37.1511V13.7162C37.1511 15.1291 37.7264 15.7246 39.7046 15.5228V14.1501C39.0384 14.1905 38.665 14.1501 38.665 13.7162V11.9297H39.7046Z" fill="white"/>
<path d="M42.8855 15.6641C44.3691 15.6641 45.5601 14.5034 45.5601 12.9996C45.5601 11.4957 44.3691 10.3351 42.8855 10.3351C41.4018 10.3351 40.2109 11.4957 40.2109 12.9996C40.2109 14.5034 41.4018 15.6641 42.8855 15.6641ZM42.8855 14.1905C42.2294 14.1905 41.7248 13.7162 41.7248 12.9996C41.7248 12.283 42.2294 11.8086 42.8855 11.8086C43.5415 11.8086 44.0461 12.283 44.0461 12.9996C44.0461 13.7162 43.5415 14.1905 42.8855 14.1905Z" fill="white"/>
<path d="M47.9303 11.3746V10.4764H46.4164V15.5228H47.9303V13.2418C47.9303 12.2426 48.8185 11.9903 49.4442 12.0912V10.3754C48.8084 10.3754 48.1321 10.6984 47.9303 11.3746Z" fill="white"/>
<path d="M51.3565 13.6051H54.9394C54.9798 13.4134 55 13.2115 55 12.9996C55 11.4755 53.91 10.3351 52.4364 10.3351C50.8418 10.3351 49.7517 11.4957 49.7517 12.9996C49.7517 14.5034 50.8216 15.6641 52.5474 15.6641C53.5063 15.6641 54.2531 15.3108 54.7477 14.6245L53.5365 13.9281C53.3347 14.1501 52.9814 14.3116 52.5676 14.3116C52.0125 14.3116 51.5483 14.13 51.3565 13.6051ZM51.3262 12.4747C51.4675 11.96 51.851 11.6774 52.4263 11.6774C52.8805 11.6774 53.3347 11.8894 53.4962 12.4747H51.3262Z" fill="white"/>
</svg>
