<svg width="14" height="13" viewBox="0 0 14 13" fill="none" xmlns="http://www.w3.org/2000/svg">
<path d="M4.59353 13.0001C2.07953 12.9856 0 7.8537 0 5.24013C0 0.970878 3.20267 0.0362248 4.43695 0.0362248C4.99319 0.0362248 5.58714 0.254662 6.11101 0.447961C6.47735 0.582797 6.85623 0.721989 7.06695 0.721989C7.19307 0.721989 7.49029 0.603582 7.75271 0.499692C8.31235 0.276899 9.00873 0 9.81967 0C9.82112 0 9.82307 0 9.82449 0C10.43 0 12.266 0.13289 13.3698 1.79052L13.6284 2.17907L13.2562 2.45986C12.7247 2.86097 11.7547 3.59266 11.7547 5.04202C11.7547 6.7586 12.8532 7.41877 13.3809 7.73628C13.6139 7.87643 13.855 8.02093 13.855 8.33699C13.855 8.54335 12.208 12.9745 9.81627 12.9745C9.23103 12.9745 8.81735 12.7986 8.45246 12.6435C8.08325 12.4864 7.76475 12.3511 7.23847 12.3511C6.9717 12.3511 6.63436 12.4772 6.27722 12.6111C5.78918 12.7932 5.23677 13.0001 4.60996 13.0001H4.59353Z" fill="white"/>
</svg>
