<svg width="12" height="12" viewBox="0 0 12 12" fill="none" xmlns="http://www.w3.org/2000/svg">
<path fill-rule="evenodd" clip-rule="evenodd" d="M4.79232 1.78088C3.12586 1.78088 1.77493 3.13633 1.77493 4.80837C1.77493 6.48041 3.12586 7.83587 4.79232 7.83587C6.45878 7.83587 7.80971 6.48041 7.80971 4.80837C7.80971 3.13633 6.45878 1.78088 4.79232 1.78088ZM0 4.80837C0 2.15278 2.1456 0 4.79232 0C7.43905 0 9.58464 2.15278 9.58464 4.80837C9.58464 5.78836 9.29245 6.69988 8.79071 7.46C8.78342 7.47104 8.79922 7.48408 8.80855 7.47472C8.81278 7.47048 8.81965 7.47048 8.82388 7.47472L11.7406 10.4013C12.0864 10.7482 12.0864 11.3094 11.7406 11.6563C11.3933 12.0049 10.8288 12.0049 10.4814 11.6563L9.18926 10.3599C8.25235 9.41982 6.76321 9.39147 5.44834 9.57206C5.23386 9.60152 5.01486 9.61674 4.79232 9.61674C2.1456 9.61674 0 7.46396 0 4.80837Z" fill="#C4C4C4"/>
</svg>
