<svg width="21" height="22" viewBox="0 0 21 22" fill="none" xmlns="http://www.w3.org/2000/svg">
<path d="M0.499102 4.47549C0.22731 4.47549 0.00493431 4.23284 -7.62939e-06 3.93627V0.544608C-7.62939e-06 0.242647 0.222368 0 0.499102 0H3.60741C3.87921 0 4.10158 0.242647 4.10158 0.544608V1.72549H16.0604V0.544608C16.0604 0.248039 16.2828 0.00539216 16.5546 0H19.6629C19.9347 0 20.1571 0.242647 20.162 0.544608V3.93627C20.162 4.23284 19.9396 4.47549 19.6629 4.47549H18.5807V17.5245H19.6629C19.9347 17.5245 20.1571 17.7672 20.162 18.0637V21.4554C20.162 21.752 19.9396 21.9946 19.6629 22H16.5546C16.2828 22 16.0604 21.7574 16.0604 21.4554V20.2745H4.10158V21.4554C4.10158 21.752 3.87921 21.9946 3.60741 22H0.499102C0.22731 22 0.00493431 21.7574 -7.62939e-06 21.4554V18.0637C-7.62939e-06 17.7672 0.222368 17.5245 0.499102 17.5245H1.58133V4.47549H0.499102ZM19.1737 3.39706V1.07843H17.0488V3.39706H19.1737ZM17.0488 20.9216H19.1737V18.6029H17.0488V20.9216ZM4.10158 18.0637V19.1961H16.0604V18.0637C16.0604 17.7672 16.2828 17.5245 16.5546 17.5245H17.5923V4.47549H16.5546C16.2828 4.47549 16.0604 4.23284 16.0604 3.93627V2.80392H4.10158V3.93627C4.10158 4.23284 3.87921 4.47549 3.60741 4.47549H2.56966V17.5245H3.60741C3.87921 17.5245 4.10158 17.7672 4.10158 18.0637ZM0.988327 18.6029V20.9216H3.11325V18.6029H0.988327ZM3.11325 3.39706V1.07843H0.988327V3.39706H3.11325Z" fill="white"/>
</svg>
