<svg width="97" height="253" viewBox="0 0 97 253" fill="none" xmlns="http://www.w3.org/2000/svg">
<path d="M88.5417 239.265C81.5149 247.782 63.7472 260.876 48.8905 245.12C34.0338 229.365 54.0769 199.877 65.9556 187.102C71.8113 183.554 84.0245 177.521 86.0322 181.779C88.5417 187.102 90.0475 198.28 69.469 207.861C56.2519 213.539 27.7097 219.571 19.2776 198.28C15.4295 189.054 14.7603 167.621 42.8675 155.698L78.0015 140.262M78.0015 140.262C91.3859 139.726 110.626 146.107 80.5111 175.924C70.9747 180.537 47.8866 189.87 31.8254 190.296C22.6236 188.344 4.92276 178.692 7.73348 155.698C7.39887 151.085 13.6561 139.623 41.3617 130.681C47.7193 129.262 61.9402 126.316 67.9632 125.891L89.5455 122.697L78.0015 140.262ZM78.0015 140.262C69.2191 142.746 48.4914 146.969 35.8407 143.988C20.0272 140.262 13.7564 143.456 1.20859 122.697C-0.96637 112.051 0.606294 90.2281 24.2966 88.099C47.987 85.9699 63.2787 90.0507 67.9632 92.3572V112.051M67.9632 112.051C50.7308 110.455 13.7564 111.626 3.71816 129.084C-1.13368 141.504 -1.50175 166.876 35.8407 169.005C44.8751 168.65 64.1486 167.514 68.967 165.811L67.9632 128.02C50.3962 126.423 13.4553 118.865 6.22773 101.406C2.37972 91.2926 1.10821 70.0016 26.8062 65.7434C36.3426 65.3886 57.9249 66.7015 67.9632 74.7921M67.9632 112.051V74.7921M67.9632 112.051C57.0884 109.39 33.1303 102.045 24.2966 93.954C13.5891 85.0828 -2.10404 63.082 20.7832 46.0492C27.9774 43.3879 47.0837 41.2588 65.9556 54.0334M67.9632 74.7921L65.9556 54.0334M67.9632 74.7921C55.9172 66.2757 31.3234 45.6234 29.3158 31.1455C28.4792 22.2743 30.7211 3.78656 46.3809 0.805816C50.3962 0.0961154 60.3341 0.167086 67.9632 6.12857L65.9556 54.0334" stroke="#FF7029"/>
</svg>
