<svg width="20" height="18" viewBox="0 0 20 18" fill="none" xmlns="http://www.w3.org/2000/svg">
<path d="M17.997 17.8702C17.5888 17.8794 17.1878 17.7506 16.8479 17.5009C16.5949 17.3186 16.2992 17.2214 15.997 17.2214C15.6948 17.2214 15.3991 17.3186 15.1461 17.5009C14.8028 17.7421 14.4042 17.8702 13.9972 17.8702C13.5901 17.8702 13.1915 17.7421 12.8482 17.5009C12.5952 17.3184 12.2995 17.2211 11.9972 17.2211C11.6949 17.2211 11.3991 17.3184 11.1461 17.5009C10.8028 17.7421 10.4042 17.8702 9.99717 17.8702C9.59013 17.8702 9.19155 17.7421 8.8482 17.5009C8.59539 17.3185 8.29985 17.2213 7.99775 17.2213C7.69566 17.2213 7.40012 17.3185 7.14731 17.5009C6.83601 17.7292 6.47272 17.8561 6.09908 17.867L6.07849 17.218C6.35448 17.2107 6.6225 17.1144 6.84937 16.9408C7.19264 16.6997 7.59112 16.5716 7.99805 16.5716C8.40498 16.5716 8.80346 16.6997 9.14672 16.9408C9.39969 17.1233 9.69538 17.2205 9.99761 17.2205C10.2998 17.2205 10.5955 17.1233 10.8485 16.9408C11.1919 16.6995 11.5906 16.5713 11.9978 16.5713C12.4049 16.5713 12.8036 16.6995 13.147 16.9408C13.4 17.1233 13.6957 17.2205 13.9979 17.2205C14.3001 17.2205 14.5958 17.1233 14.8488 16.9408C15.1922 16.6997 15.5907 16.5716 15.9977 16.5716C16.4048 16.5716 16.8033 16.6997 17.1467 16.9408C17.4003 17.1237 17.6967 17.2211 17.9997 17.2211C18.3026 17.2211 18.599 17.1237 18.8526 16.9408C19.1921 16.6919 19.5924 16.5633 20 16.5722V17.2212C19.6965 17.212 19.3983 17.3099 19.1488 17.5006C18.808 17.7506 18.4061 17.8796 17.997 17.8702Z" fill="white"/>
<path d="M2 17.8701C1.59185 17.8794 1.19092 17.7505 0.851175 17.5008C0.601675 17.31 0.30348 17.212 0 17.2211V16.5721C0.408242 16.5627 0.80928 16.6916 1.14912 16.9414C1.39848 17.1323 1.6966 17.2303 2 17.2211C2.30353 17.2303 2.60178 17.1322 2.85117 16.941C3.19029 16.6914 3.59066 16.5626 3.99823 16.5721C4.39592 16.5622 4.78703 16.6852 5.12029 16.9248L4.82352 17.4849C4.58009 17.3042 4.29153 17.2119 3.99823 17.2211C3.69595 17.2121 3.39897 17.3099 3.15058 17.5002C2.81045 17.7506 2.40882 17.8797 2 17.8701Z" fill="white"/>
<path d="M17.9979 15.5982C17.5894 15.6074 17.1882 15.4786 16.8479 15.2289C16.5947 15.0463 16.2988 14.9491 15.9963 14.9491C15.6938 14.9491 15.3979 15.0463 15.1447 15.2289C14.8014 15.47 14.4028 15.5981 13.9959 15.5981C13.5889 15.5981 13.1904 15.47 12.847 15.2289C12.5942 15.0465 12.2986 14.9493 11.9965 14.9493C11.6943 14.9493 11.3987 15.0465 11.1459 15.2289C10.8026 15.4701 10.404 15.5982 9.99705 15.5982C9.59006 15.5982 9.19152 15.4701 8.84823 15.2289C8.59536 15.0465 8.29978 14.9493 7.99764 14.9493C7.6955 14.9493 7.39992 15.0465 7.14705 15.2289C6.80732 15.4787 6.40638 15.6076 5.99823 15.5982C5.59008 15.6076 5.18914 15.4787 4.84941 15.2289C4.60013 15.0381 4.30212 14.9401 3.99882 14.9492C3.69562 14.9401 3.39771 15.0381 3.14853 15.2289C2.80933 15.4784 2.40903 15.6073 2.00147 15.5982C1.59323 15.6076 1.19219 15.4787 0.852352 15.2289C0.60258 15.0377 0.303896 14.9397 0 14.9492V14.3002C0.408145 14.2908 0.809077 14.4197 1.14882 14.6695C1.39832 14.8603 1.69652 14.9583 2 14.9492C2.3032 14.9583 2.60111 14.8603 2.85029 14.6695C3.18948 14.42 3.58979 14.2911 3.99735 14.3002C4.4058 14.2906 4.80708 14.4195 5.14705 14.6695C5.39642 14.8604 5.69454 14.9584 5.99794 14.9492C6.30133 14.9584 6.59945 14.8604 6.84882 14.6695C7.1921 14.4282 7.59064 14.3001 7.99764 14.3001C8.40464 14.3001 8.80318 14.4282 9.14646 14.6695C9.39937 14.8519 9.69501 14.9491 9.9972 14.9491C10.2994 14.9491 10.595 14.8519 10.8479 14.6695C11.1912 14.4282 11.5898 14.3001 11.9968 14.3001C12.4038 14.3001 12.8023 14.4282 13.1456 14.6695C13.3985 14.8519 13.6941 14.9491 13.9963 14.9491C14.2985 14.9491 14.5941 14.8519 14.847 14.6695C15.1907 14.4283 15.5895 14.3002 15.9968 14.3002C16.404 14.3002 16.8028 14.4283 17.1465 14.6695C17.3998 14.8519 17.6958 14.949 17.9984 14.949C18.3009 14.949 18.5969 14.8519 18.8503 14.6695C19.1904 14.4199 19.5916 14.291 20 14.3002V14.9492C19.6959 14.9397 19.3971 15.0377 19.147 15.2289C18.8071 15.4784 18.4061 15.6072 17.9979 15.5982Z" fill="white"/>
<path d="M17.9971 13.327C17.5888 13.3362 17.1878 13.2073 16.8479 12.9577C16.5984 12.7668 16.3002 12.6688 15.9968 12.678C15.774 12.6695 15.5529 12.7219 15.3529 12.8305L15.0935 12.2464C15.3743 12.0945 15.6841 12.0196 15.9968 12.028C16.4055 12.0188 16.8069 12.148 17.1471 12.3982C17.4006 12.5811 17.697 12.6785 18 12.6785C18.303 12.6785 18.5993 12.5811 18.8529 12.3982C19.1923 12.1492 19.5925 12.0203 20 12.0289V12.678C19.6966 12.6688 19.3984 12.7667 19.1488 12.9574C18.8081 13.2074 18.4062 13.3363 17.9971 13.327Z" fill="white"/>
<path d="M13.9941 13.3268C13.5865 13.3363 13.1862 13.2075 12.847 12.9579C12.5941 12.7753 12.2983 12.6781 11.996 12.6781C11.6937 12.6781 11.398 12.7753 11.145 12.9579C10.8016 13.1991 10.4031 13.3272 9.99602 13.3272C9.58899 13.3272 9.1904 13.1991 8.84705 12.9579C8.59408 12.7754 8.2984 12.6782 7.99617 12.6782C7.69394 12.6782 7.39826 12.7754 7.14529 12.9579C6.80561 13.2072 6.40495 13.336 5.99705 13.3268C5.58891 13.3362 5.18798 13.2073 4.84823 12.9576C4.59873 12.7667 4.30054 12.6687 3.99706 12.6778C3.69477 12.6688 3.39779 12.7666 3.14941 12.9569C2.80961 13.2071 2.40842 13.3362 2 13.3268C1.59185 13.3362 1.19092 13.2073 0.851176 12.9576C0.601676 12.7667 0.30348 12.6687 0 12.6778V12.0288C0.408242 12.0194 0.80928 12.1483 1.14912 12.3981C1.39848 12.589 1.6966 12.687 2 12.6778C2.30353 12.687 2.60178 12.5889 2.85117 12.3978C3.19029 12.1481 3.59066 12.0193 3.99823 12.0288C4.40637 12.0195 4.8073 12.1484 5.14705 12.3981C5.39642 12.589 5.69454 12.687 5.99794 12.6778C6.30142 12.6869 6.59961 12.5889 6.84911 12.3981C7.19246 12.1569 7.59105 12.0288 7.99808 12.0288C8.40511 12.0288 8.8037 12.1569 9.14705 12.3981C9.40002 12.5806 9.6957 12.6777 9.99793 12.6777C10.3002 12.6777 10.5958 12.5806 10.8488 12.3981C11.1922 12.1567 11.5909 12.0285 11.9981 12.0285C12.4052 12.0285 12.8039 12.1567 13.1473 12.3981C13.4065 12.5904 13.7137 12.6881 14.0259 12.6775C14.0486 12.6778 14.0713 12.6765 14.0938 12.6736L14.172 13.3168C14.113 13.3244 14.0536 13.3278 13.9941 13.3268Z" fill="white"/>
<path d="M17.9979 11.055C17.5894 11.0642 17.1882 10.9354 16.8479 10.6857C16.5947 10.5032 16.2988 10.4059 15.9963 10.4059C15.6938 10.4059 15.3979 10.5032 15.1447 10.6857C14.8014 10.9268 14.4028 11.0549 13.9959 11.0549C13.5889 11.0549 13.1904 10.9268 12.847 10.6857C12.5942 10.5033 12.2986 10.4061 11.9965 10.4061C11.6943 10.4061 11.3987 10.5033 11.1459 10.6857C10.8026 10.9269 10.404 11.055 9.99705 11.055C9.59006 11.055 9.19152 10.9269 8.84823 10.6857C8.59536 10.5033 8.29978 10.4061 7.99764 10.4061C7.6955 10.4061 7.39992 10.5033 7.14705 10.6857C6.80732 10.9355 6.40638 11.0644 5.99823 11.055C5.59008 11.0644 5.18914 10.9355 4.84941 10.6857C4.60013 10.4949 4.30212 10.3969 3.99882 10.406C3.69562 10.3969 3.39771 10.4949 3.14853 10.6857C2.80933 10.9352 2.40903 11.0641 2.00147 11.055C1.59323 11.0644 1.19219 10.9355 0.852352 10.6857C0.60258 10.4945 0.303896 10.3965 0 10.406V9.75696C0.408145 9.74765 0.809077 9.87653 1.14882 10.1263C1.39832 10.3171 1.69652 10.4151 2 10.406C2.3032 10.4151 2.60111 10.3171 2.85029 10.1263C3.18948 9.87678 3.58979 9.74791 3.99735 9.75696C4.4058 9.74739 4.80708 9.87629 5.14705 10.1263C5.39642 10.3172 5.69454 10.4152 5.99794 10.406C6.30133 10.4152 6.59945 10.3172 6.84882 10.1263C7.1921 9.88502 7.59064 9.75688 7.99764 9.75688C8.40464 9.75688 8.80318 9.88502 9.14646 10.1263C9.39937 10.3087 9.69501 10.4059 9.9972 10.4059C10.2994 10.4059 10.595 10.3087 10.8479 10.1263C11.1912 9.88502 11.5898 9.75688 11.9968 9.75688C12.4038 9.75688 12.8023 9.88502 13.1456 10.1263C13.3985 10.3087 13.6941 10.4059 13.9963 10.4059C14.2985 10.4059 14.5941 10.3087 14.847 10.1263C15.1907 9.88512 15.5895 9.75704 15.9968 9.75704C16.404 9.75704 16.8028 9.88512 17.1465 10.1263C17.3998 10.3087 17.6958 10.4058 17.9984 10.4058C18.3009 10.4058 18.5969 10.3087 18.8503 10.1263C19.1904 9.87669 19.5916 9.74783 20 9.75696V10.406C19.6959 10.3965 19.3971 10.4945 19.147 10.6857C18.8071 10.9352 18.4061 11.064 17.9979 11.055Z" fill="white"/>
<path d="M13.8067 10.7798L13.2517 10.565C13.3946 10.1119 13.453 9.63153 13.4234 9.15287C13.3937 8.6742 13.2766 8.20711 13.079 7.77968L11.0588 3.41463C11.0388 3.37152 11.0278 3.32404 11.0267 3.27566C11.0255 3.22728 11.0342 3.17922 11.052 3.13501C11.0699 3.09079 11.0965 3.05155 11.1298 3.02014C11.1632 2.98873 11.2025 2.96596 11.2449 2.95349L15.2711 1.76901C15.4023 1.73116 15.5147 1.63766 15.5837 1.50888C15.6527 1.38009 15.6729 1.22643 15.6398 1.08133C15.6067 0.936229 15.523 0.811422 15.4069 0.734064C15.2908 0.656707 15.1517 0.633057 15.0199 0.668261L10.147 1.95334C10.0428 1.9805 9.94571 2.03376 9.86319 2.10898C9.78068 2.1842 9.71496 2.27938 9.67113 2.38713C9.62731 2.49488 9.60656 2.61231 9.61048 2.73034C9.6144 2.84836 9.6429 2.9638 9.69376 3.06772L11.1408 6.03379C11.1775 6.10917 11.1857 6.19751 11.1637 6.27955C11.1417 6.3616 11.0912 6.43073 11.0232 6.47188L9.15552 7.60769L8.8717 7.03914L10.484 6.05845L9.1764 3.37536C9.08286 3.18382 9.03049 2.97111 9.02335 2.75368C9.01622 2.53624 9.0545 2.31991 9.13524 2.12141C9.21599 1.9229 9.33703 1.74755 9.489 1.6089C9.64098 1.47026 9.81982 1.37204 10.0117 1.32183L14.8823 0.037079C15.1658 -0.0419733 15.4662 0.00649257 15.7174 0.171814C15.9685 0.337136 16.1499 0.605771 16.2215 0.918624C16.2932 1.23148 16.2493 1.56292 16.0994 1.84004C15.9496 2.11716 15.7061 2.31725 15.4226 2.3963L11.7479 3.47694L13.6032 7.48405C13.8368 7.98986 13.9752 8.54259 14.0102 9.10898C14.0452 9.67537 13.976 10.2437 13.8067 10.7798Z" fill="white"/>
<path d="M7.84381 7.66943L4.26963 9.84245L4.55337 10.4106L8.12755 8.23759L7.84381 7.66943Z" fill="white"/>
<path d="M16.4705 8.62115C16.0342 8.62115 15.6077 8.4784 15.245 8.21097C14.8822 7.94353 14.5995 7.56342 14.4325 7.11869C14.2656 6.67396 14.2219 6.18459 14.307 5.71246C14.3921 5.24034 14.6022 4.80667 14.9107 4.46629C15.2192 4.12591 15.6122 3.8941 16.0401 3.80019C16.468 3.70628 16.9116 3.75448 17.3146 3.93869C17.7177 4.12291 18.0622 4.43486 18.3046 4.83511C18.547 5.23535 18.6764 5.70591 18.6764 6.18729C18.6757 6.83258 18.4431 7.45124 18.0296 7.90753C17.616 8.36382 17.0553 8.62046 16.4705 8.62115ZM16.4705 4.40246C16.1505 4.40246 15.8378 4.50713 15.5718 4.70325C15.3057 4.89937 15.0984 5.17813 14.976 5.50426C14.8535 5.8304 14.8215 6.18927 14.8839 6.53549C14.9463 6.88171 15.1004 7.19974 15.3266 7.44935C15.5529 7.69897 15.8411 7.86896 16.1549 7.93782C16.4687 8.00669 16.7939 7.97135 17.0895 7.83626C17.3851 7.70117 17.6378 7.4724 17.8155 7.17889C17.9933 6.88537 18.0881 6.54029 18.0881 6.18729C18.0876 5.7141 17.917 5.26048 17.6137 4.92588C17.3105 4.59129 16.8993 4.40306 16.4705 4.40246Z" fill="white"/>
</svg>
