<svg width="37" height="31" viewBox="0 0 37 31" fill="none" xmlns="http://www.w3.org/2000/svg">
<path d="M36.5377 1.68757C37.232 2.89014 37.139 4.32207 36.2939 5.42421L17.7407 29.635C16.9755 30.6334 15.7157 31.1424 14.4274 30.8951C13.1658 30.6525 12.1656 29.7329 11.8184 28.496L9.07318 18.7256L8.78727 17.7093L8.05012 16.9536L0.961329 9.69095C0.0637445 8.77191 -0.232513 7.44584 0.188146 6.23199C0.604476 5.03205 1.64867 4.16136 2.93607 3.99264L33.1798 0.0304539C34.5568 -0.150309 35.8435 0.485059 36.5377 1.68757Z" fill="white"/>
<path d="M9.07324 18.7253L11.8184 28.4958C12.1656 29.7327 13.1658 30.6522 14.4274 30.8949C15.7157 31.1422 16.9756 30.6332 17.7407 29.6348L36.2939 5.42402C37.139 4.32188 37.232 2.88995 36.5377 1.68738L8.78733 17.7091L9.07324 18.7253Z" fill="white"/>
<path d="M20.08 11.1894C20.3623 11.6784 20.1952 12.3042 19.7055 12.5869L9.07327 18.7254L8.78736 17.7092L8.05021 16.9534L18.6825 10.8149C19.1721 10.5323 19.7976 10.7004 20.08 11.1894Z" fill="#FF7029"/>
<path d="M9.0733 18.7256L19.7055 12.587C20.1952 12.3043 20.3624 11.6786 20.08 11.1895L8.78739 17.7093L9.0733 18.7256Z" fill="#FF7029"/>
</svg>
