<svg width="21" height="19" viewBox="0 0 21 19" fill="none" xmlns="http://www.w3.org/2000/svg">
<path d="M3.40538 10.64C3.13596 10.64 2.87258 10.7291 2.64857 10.8962C2.42455 11.0632 2.24995 11.3006 2.14684 11.5783C2.04374 11.8561 2.01676 12.1617 2.06932 12.4565C2.12189 12.7514 2.25163 13.0222 2.44214 13.2348C2.63265 13.4474 2.87537 13.5922 3.13962 13.6508C3.40387 13.7095 3.67777 13.6793 3.92668 13.5643C4.1756 13.4493 4.38835 13.2544 4.53803 13.0045C4.68771 12.7545 4.76761 12.4606 4.76761 12.16C4.76761 11.7569 4.62409 11.3703 4.36862 11.0852C4.11315 10.8001 3.76666 10.64 3.40538 10.64ZM3.40538 12.92C3.27067 12.92 3.13898 12.8754 3.02697 12.7919C2.91496 12.7084 2.82766 12.5897 2.77611 12.4508C2.72456 12.312 2.71107 12.1592 2.73735 12.0117C2.76363 11.8643 2.8285 11.7289 2.92376 11.6226C3.01901 11.5163 3.14038 11.4439 3.2725 11.4146C3.40462 11.3853 3.54157 11.4003 3.66603 11.4579C3.79049 11.5154 3.89686 11.6128 3.9717 11.7378C4.04655 11.8628 4.08649 12.0097 4.08649 12.16C4.08649 12.3616 4.01473 12.5549 3.887 12.6974C3.75926 12.8399 3.58602 12.92 3.40538 12.92Z" fill="white"/>
<path d="M17.0277 10.64C16.7582 10.64 16.4949 10.7291 16.2709 10.8962C16.0468 11.0632 15.8722 11.3006 15.7691 11.5783C15.666 11.8561 15.6391 12.1617 15.6916 12.4565C15.7442 12.7514 15.8739 13.0222 16.0644 13.2348C16.2549 13.4474 16.4977 13.5922 16.7619 13.6508C17.0262 13.7095 17.3001 13.6793 17.549 13.5643C17.7979 13.4493 18.0106 13.2544 18.1603 13.0045C18.31 12.7545 18.3899 12.4606 18.3899 12.16C18.3899 11.7569 18.2464 11.3703 17.9909 11.0852C17.7354 10.8001 17.389 10.64 17.0277 10.64ZM17.0277 12.92C16.893 12.92 16.7613 12.8754 16.6493 12.7919C16.5373 12.7084 16.45 12.5897 16.3984 12.4508C16.3469 12.312 16.3334 12.1592 16.3596 12.0117C16.3859 11.8643 16.4508 11.7289 16.546 11.6226C16.6413 11.5163 16.7627 11.4439 16.8948 11.4146C17.0269 11.3853 17.1639 11.4003 17.2883 11.4579C17.4128 11.5154 17.5192 11.6128 17.594 11.7378C17.6688 11.8628 17.7088 12.0097 17.7088 12.16C17.7088 12.3616 17.637 12.5549 17.5093 12.6974C17.3816 12.8399 17.2083 12.92 17.0277 12.92Z" fill="white"/>
<path d="M7.15153 12.54H13.2816V13.3H7.15153V12.54Z" fill="white"/>
<path d="M7.15153 11.02H13.2816V11.78H7.15153V11.02Z" fill="white"/>
<path d="M9.19487 5.32H11.2382V6.08H9.19487V5.32Z" fill="white"/>
<path d="M20.4334 8.74V7.98C20.4326 7.67793 20.3247 7.38849 20.1333 7.17489C19.9419 6.9613 19.6825 6.8409 19.4117 6.84H18.0631L17.3582 4.0812L17.147 3.1426C17.0916 2.89615 16.964 2.67742 16.7845 2.52114C16.6049 2.36486 16.3837 2.27999 16.156 2.28H13.2817V0.76C13.2812 0.55862 13.2092 0.365661 13.0816 0.223263C12.954 0.0808658 12.7811 0.000601436 12.6006 0H7.83281C7.65233 0.000601436 7.4794 0.0808658 7.35178 0.223263C7.22417 0.365661 7.15223 0.55862 7.1517 0.76V2.28H4.2774C4.04968 2.27999 3.82849 2.36486 3.64894 2.52114C3.4694 2.67742 3.34178 2.89615 3.28637 3.1426L3.07863 4.0774L2.37028 6.84H1.02167C0.750956 6.8409 0.491559 6.9613 0.300134 7.17489C0.108708 7.38849 0.000808513 7.67793 0 7.98V8.74C0.000551511 8.9325 0.0448992 9.1217 0.128886 9.28985C0.212873 9.45801 0.33375 9.59961 0.480185 9.7014C0.172322 10.0544 4.24364e-05 10.5275 0 11.02V15.58C0.000469505 15.7394 0.0310397 15.8969 0.0897182 16.0423C0.148397 16.1876 0.233866 16.3176 0.340557 16.4236V17.86C0.341365 18.1621 0.449265 18.4515 0.640691 18.6651C0.832116 18.8787 1.09151 18.9991 1.36223 19H4.08668C4.3574 18.9991 4.6168 18.8787 4.80822 18.6651C4.99965 18.4515 5.10755 18.1621 5.10835 17.86V16.72H15.3251V17.86C15.3259 18.1621 15.4338 18.4515 15.6252 18.6651C15.8166 18.8787 16.076 18.9991 16.3467 19H19.0712C19.3419 18.9991 19.6013 18.8787 19.7927 18.6651C19.9842 18.4515 20.0921 18.1621 20.0929 17.86V16.4236C20.1996 16.3176 20.285 16.1876 20.3437 16.0423C20.4024 15.8969 20.4329 15.7394 20.4334 15.58V11.02C20.4334 10.5275 20.2611 10.0544 19.9532 9.7014C20.0997 9.59961 20.2205 9.45801 20.3045 9.28985C20.3885 9.1217 20.4329 8.9325 20.4334 8.74ZM7.83281 0.76H12.6006V2.28H7.83281V0.76ZM3.94706 3.3288C3.96531 3.24641 4.00775 3.17322 4.06762 3.12088C4.12749 3.06854 4.20134 3.04007 4.2774 3.04H16.156C16.2321 3.04007 16.3059 3.06854 16.3658 3.12088C16.4257 3.17322 16.4681 3.24641 16.4864 3.3288L16.5919 3.8H3.84148L3.94706 3.3288ZM3.66099 4.56H16.7724L17.9371 9.12H8.14272C8.06267 8.58895 7.81657 8.10674 7.4481 7.75896C7.07963 7.41119 6.61263 7.22036 6.13003 7.22036C5.64742 7.22036 5.18042 7.41119 4.81195 7.75896C4.44348 8.10674 4.19738 8.58895 4.11733 9.12H2.49628L3.66099 4.56ZM7.44458 9.12H4.81547C4.88983 8.79393 5.05944 8.50481 5.2975 8.2983C5.53555 8.0918 5.82849 7.97969 6.13003 7.97969C6.43156 7.97969 6.7245 8.0918 6.96255 8.2983C7.20061 8.50481 7.37022 8.79393 7.44458 9.12ZM0.681114 7.98C0.681114 7.87922 0.716994 7.78256 0.780861 7.7113C0.844728 7.64004 0.93135 7.6 1.02167 7.6H2.17616L1.78792 9.12H1.02167C0.93135 9.12 0.844728 9.07996 0.780861 9.0087C0.716994 8.93744 0.681114 8.84078 0.681114 8.74V7.98ZM4.42724 17.86C4.42724 17.9608 4.39136 18.0574 4.32749 18.1287C4.26363 18.2 4.177 18.24 4.08668 18.24H1.36223C1.27191 18.24 1.18528 18.2 1.12142 18.1287C1.05755 18.0574 1.02167 17.9608 1.02167 17.86V16.72H4.42724V17.86ZM19.4117 17.86C19.4117 17.9608 19.3759 18.0574 19.312 18.1287C19.2481 18.2 19.1615 18.24 19.0712 18.24H16.3467C16.2564 18.24 16.1698 18.2 16.1059 18.1287C16.0421 18.0574 16.0062 17.9608 16.0062 17.86V16.72H19.4117V17.86ZM19.7523 15.58C19.7523 15.6808 19.7164 15.7774 19.6526 15.8487C19.5887 15.92 19.5021 15.96 19.4117 15.96H1.02167C0.93135 15.96 0.844728 15.92 0.780861 15.8487C0.716994 15.7774 0.681114 15.6808 0.681114 15.58V15.2H19.7523V15.58ZM19.7523 14.44H0.681114V11.02C0.681922 10.7179 0.789822 10.4285 0.981248 10.2149C1.17267 10.0013 1.43207 9.8809 1.70278 9.88H18.7306C19.0013 9.8809 19.2607 10.0013 19.4522 10.2149C19.6436 10.4285 19.7515 10.7179 19.7523 11.02V14.44ZM19.7523 8.74C19.7523 8.84078 19.7164 8.93744 19.6526 9.0087C19.5887 9.07996 19.5021 9.12 19.4117 9.12H18.6455L18.2573 7.6H19.4117C19.5021 7.6 19.5887 7.64004 19.6526 7.7113C19.7164 7.78256 19.7523 7.87922 19.7523 7.98V8.74Z" fill="white"/>
</svg>
